<?xml version="1.0" standalone="no"?>
<!DOCTYPE svg PUBLIC "-//W3C//DTD SVG 20010904//EN"
 "http://www.w3.org/TR/2001/REC-SVG-20010904/DTD/svg10.dtd">
<svg version="1.0" xmlns="http://www.w3.org/2000/svg"
 width="100.000000pt" height="100.000000pt" viewBox="0 0 100.000000 100.000000"
 preserveAspectRatio="xMidYMid meet">

<g transform="translate(0.000000,100.000000) scale(0.100000,-0.100000)"
fill="#000000" stroke="none">
<path d="M340 987 c0 -7 -27 -25 -60 -40 -133 -61 -245 -215 -272 -374 -25
-151 31 -313 149 -430 35 -34 68 -63 73 -63 15 0 19 34 23 212 l4 168 -63 0
c-56 0 -64 2 -64 19 0 16 9 19 60 23 65 5 75 10 67 33 -5 11 -22 15 -71 15
-56 0 -66 3 -71 20 -3 11 -15 20 -25 20 -20 0 -46 35 -33 43 5 2 96 0 203 -4
187 -8 547 -4 638 7 41 5 43 4 40 -18 -2 -15 -11 -24 -27 -26 -13 -2 -26 -12
-28 -23 -5 -16 -15 -19 -74 -19 -62 0 -69 -2 -69 -20 0 -20 21 -27 100 -32 23
-2 35 -8 35 -18 0 -12 -16 -16 -68 -18 l-68 -3 1 -171 c1 -105 6 -178 13 -189
10 -16 14 -15 54 13 78 57 158 183 182 288 36 155 -21 333 -146 456 -54 54
-62 67 -66 105 l-4 44 -1 -42 -2 -42 -45 22 c-30 15 -45 29 -46 42 l0 20 -9
-20 c-7 -17 -9 -17 -9 -2 -1 20 -17 23 -24 5 -4 -10 -7 -10 -15 0 -12 17 -243
16 -254 -2 -6 -8 -8 -8 -8 2 0 6 -4 12 -10 12 -5 0 -10 -6 -10 -13z"/>
<path d="M320 531 c0 -22 26 -31 98 -31 49 0 52 1 52 25 0 24 -2 25 -75 25
-67 0 -75 -2 -75 -19z"/>
<path d="M520 524 l0 -26 74 4 c80 4 92 8 83 33 -5 12 -23 15 -82 15 -74 0
-75 0 -75 -26z"/>
<path d="M316 320 c-8 -151 1 -339 15 -305 l8 20 1 -20 c1 -11 4 -14 7 -7 2 6
9 12 14 12 6 0 8 -4 4 -9 -3 -6 48 -10 131 -10 75 0 133 3 130 7 -4 3 7 11 23
18 36 15 37 23 33 262 l-3 172 -178 0 -178 0 -7 -140z"/>
</g>
</svg>
