<?xml version="1.0" standalone="no"?>
<!DOCTYPE svg PUBLIC "-//W3C//DTD SVG 20010904//EN"
 "http://www.w3.org/TR/2001/REC-SVG-20010904/DTD/svg10.dtd">
<svg version="1.0" xmlns="http://www.w3.org/2000/svg"
 width="150.000000pt" height="150.000000pt" viewBox="0 0 150.000000 150.000000"
 preserveAspectRatio="xMidYMid meet">

<g transform="translate(0.000000,150.000000) scale(0.100000,-0.100000)"
fill="#000000" stroke="none">
<path d="M622 1483 c2 -14 14 -18 53 -19 79 -2 175 -54 238 -128 29 -34 62
-75 74 -91 l21 -30 -5 28 c-3 15 -9 27 -14 27 -5 0 -9 13 -9 29 0 16 -7 34
-15 41 -8 7 -15 18 -15 26 0 25 -91 99 -143 117 -56 19 -147 21 -159 3 -5 -8
-8 -7 -8 2 0 6 -5 12 -11 12 -6 0 -9 -8 -7 -17z"/>
<path d="M413 1230 c3 -13 -7 -35 -28 -62 -17 -24 -42 -62 -54 -85 -13 -26
-29 -43 -39 -43 -14 0 -15 -2 -2 -10 12 -7 13 -15 4 -38 -16 -41 -18 -206 -3
-249 9 -29 9 -37 -2 -44 -11 -7 -10 -9 3 -9 10 0 29 -23 48 -57 36 -67 87
-126 148 -170 23 -17 39 -34 35 -36 -5 -3 -60 -6 -122 -6 -63 -1 -117 -3 -119
-6 -5 -5 192 -10 213 -5 6 1 1 -9 -11 -22 -11 -13 -27 -34 -35 -47 -14 -23
-21 -24 -92 -22 l-77 2 0 -65 0 -66 65 0 c37 0 65 -4 65 -10 0 -6 -28 -10 -65
-10 l-65 0 0 -50 0 -50 70 0 c48 0 70 4 70 12 0 15 25 -20 34 -47 6 -19 2 -20
-84 -17 -59 2 -90 0 -90 -7 0 -8 145 -11 480 -11 l480 0 0 46 0 45 -110 -3
c-99 -3 -110 -1 -110 15 0 15 12 17 110 17 l110 0 0 50 0 50 -95 0 c-57 0 -95
4 -95 10 0 6 38 10 95 10 95 0 95 0 95 25 0 25 -1 25 -85 25 -50 0 -85 4 -85
10 0 6 35 10 85 10 l85 0 0 85 0 85 -80 0 c-44 0 -80 2 -80 5 0 3 20 30 45 61
25 30 56 77 70 104 13 26 30 50 37 53 8 4 9 6 2 6 -9 1 -9 12 -3 39 25 109 1
276 -53 363 -24 39 -84 109 -92 109 -5 0 6 -37 23 -75 25 -55 29 -83 17 -131
-15 -64 -32 -94 -44 -76 -7 10 -13 7 -26 -12 -9 -14 -24 -26 -34 -26 -9 0 -25
-7 -35 -15 -11 -7 -24 -12 -31 -9 -7 3 -24 -7 -38 -21 -19 -18 -28 -22 -32
-13 -4 9 -10 6 -23 -11 l-17 -23 -10 36 c-11 36 -11 36 -40 21 -16 -8 -34 -14
-40 -14 -6 1 -30 -7 -54 -18 -24 -11 -54 -19 -67 -17 -14 1 -25 -2 -25 -7 0
-10 -94 45 -127 74 -13 11 -23 26 -23 33 0 6 -7 35 -17 63 -15 48 -15 57 2
152 9 55 14 103 10 107 -4 4 -10 1 -12 -5 -3 -7 -9 -13 -14 -13 -4 0 -6 7 -3
15 4 8 1 15 -6 15 -7 0 -10 -8 -7 -20z"/>
<path d="M531 1053 c4 -43 8 -84 8 -90 1 -7 6 -13 12 -13 6 0 9 7 5 15 -7 18
5 19 25 3 12 -11 12 -11 2 1 -22 25 -15 38 17 33 33 -5 40 -18 13 -25 -16 -4
-16 -5 0 -6 11 -1 21 8 24 20 5 19 11 21 56 15 28 -3 54 -11 59 -18 5 -8 8 -9
8 -2 0 20 -23 32 -75 39 -58 8 -80 20 -127 70 l-34 36 7 -78z m84 -23 c3 -5
-3 -10 -15 -10 -12 0 -18 5 -15 10 3 6 10 10 15 10 5 0 12 -4 15 -10z"/>
<path d="M618 922 c-20 -4 -25 -23 -5 -21 6 1 23 4 37 8 23 6 23 8 5 12 -11 3
-28 3 -37 1z"/>
<path d="M360 360 l-85 -6 82 -2 c46 -1 85 2 88 8 3 6 5 9 3 8 -2 -1 -41 -5
-88 -8z"/>
<path d="M317 33 c24 -2 62 -2 86 0 23 2 4 4 -43 4 -47 0 -66 -2 -43 -4z"/>
</g>
</svg>
